<?xml version="1.0" encoding="utf-8"?><!-- Uploaded to: SVG Repo, www.svgrepo.com, Generator: SVG Repo Mixer Tools -->
<svg version="1.1" id="Uploaded to svgrepo.com" xmlns="http://www.w3.org/2000/svg" xmlns:xlink="http://www.w3.org/1999/xlink" 
	 width="800px" height="800px" viewBox="0 0 32 32" xml:space="preserve">
<style type="text/css">
	.sharpcorners_een{fill:#111918;}
	.st0{fill:#0B1719;}
</style>
<path class="sharpcorners_een" d="M8,19H4v-3h1v-1h2v1h1V19z M28,15h-1v-1h-2v1h-1v4h4V15z M27,22v1h3v6h-1v1h-2v-1H5v1H3v-1H2v-6h3
	v-1H0v-2h12v2H7v1h7l1-7.08C11.609,15.434,9,12.526,9,9c0-3.866,3.134-7,7-7s7,3.134,7,7c0,3.526-2.609,6.434-6,6.92L18,23h7v-1h-5
	v-2h12v2H27z M16,14c2.761,0,5-2.239,5-5s-2.239-5-5-5s-5,2.239-5,5S13.239,14,16,14z M20,9c0,2.209-1.791,4-4,4s-4-1.791-4-4
	c0-2.209,1.791-4,4-4S20,6.791,20,9z M16.951,8.756l1.403-1.403l-0.707-0.707l-1.403,1.403C16.164,8.029,16.086,8,16,8
	c-0.552,0-1,0.448-1,1c0,0.552,0.448,1,1,1s1-0.448,1-1C17,8.914,16.971,8.836,16.951,8.756z"/>
</svg>